<svg width="40" height="40" viewBox="0 0 40 40" fill="none" xmlns="http://www.w3.org/2000/svg">
<path fill-rule="evenodd" clip-rule="evenodd" d="M1 33.1665C1 29.7809 3.61438 27.1665 7 27.1665H17C20.3856 27.1665 23 29.7809 23 33.1665V38.1665C23 38.7188 22.5523 39.1665 22 39.1665H2C1.44771 39.1665 1 38.7188 1 38.1665V33.1665ZM7 29.1665C4.71895 29.1665 3 30.8855 3 33.1665V37.1665H21V33.1665C21 30.8855 19.2811 29.1665 17 29.1665H7Z" fill="#42EC9A"/>
<path fill-rule="evenodd" clip-rule="evenodd" d="M12 13C9.71895 13 8 14.7189 8 17V18.6666C8 20.9477 9.71895 22.6666 12 22.6666C14.2811 22.6666 16 20.9477 16 18.6666V17C16 14.7189 14.2811 13 12 13ZM6 17C6 13.6144 8.61438 11 12 11C15.3856 11 18 13.6144 18 17V18.6666C18 22.0523 15.3856 24.6666 12 24.6666C8.61438 24.6666 6 22.0523 6 18.6666V17Z" fill="#42EC9A"/>
<path fill-rule="evenodd" clip-rule="evenodd" d="M20.5 2C20.5 1.44771 20.9477 1 21.5 1H38.1667C38.719 1 39.1667 1.44771 39.1667 2V13.6666C39.1667 14.2189 38.719 14.6666 38.1667 14.6666H28.5L22.1 19.4666C21.797 19.6939 21.3916 19.7305 21.0528 19.5611C20.714 19.3917 20.5 19.0454 20.5 18.6666V2ZM22.5 3V16.6666L27.5667 12.8666C27.7398 12.7368 27.9503 12.6666 28.1667 12.6666H37.1667V3H22.5Z" fill="#42EC9A"/>
</svg>
