<svg width="40" height="40" viewBox="0 0 40 40" fill="none" xmlns="http://www.w3.org/2000/svg">
<path fill-rule="evenodd" clip-rule="evenodd" d="M28 14.4551V8H5V28H16.25V30H5V36C5 36.8227 5.67728 37.5 6.5 37.5H26.5C27.3227 37.5 28 36.8227 28 36V26.875H30V36C30 37.9273 28.4272 39.5 26.5 39.5H6.5C4.57271 39.5 3 37.9273 3 36V3.5C3 1.57272 4.57271 0 6.5 0H26.5C28.4272 0 30 1.57272 30 3.5V14.4551H36.9304L35.3471 23.9551H21.786L19.911 13.3301H17V11.3301H21.5889L22.1404 14.4551H28ZM5 3.5C5 2.67728 5.67728 2 6.5 2H26.5C27.3227 2 28 2.67728 28 3.5V6H5V3.5ZM23.4639 21.9551L22.4933 16.4551H34.5695L33.6528 21.9551H23.4639Z" fill="#42EC9A"/>
<path fill-rule="evenodd" clip-rule="evenodd" d="M22.1875 26.0001C20.427 26.0001 19 27.4272 19 29.1876C19 30.948 20.427 32.3751 22.1875 32.3751C23.9479 32.3751 25.375 30.948 25.375 29.1876C25.375 27.4272 23.9479 26.0001 22.1875 26.0001ZM21 29.1876C21 28.5318 21.5316 28.0001 22.1875 28.0001C22.8433 28.0001 23.375 28.5318 23.375 29.1876C23.375 29.8434 22.8433 30.3751 22.1875 30.3751C21.5316 30.3751 21 29.8434 21 29.1876Z" fill="#42EC9A"/>
<path fill-rule="evenodd" clip-rule="evenodd" d="M35.1875 26.0001C33.427 26.0001 32 27.4272 32 29.1876C32 30.948 33.427 32.3751 35.1875 32.3751C36.9479 32.3751 38.375 30.948 38.375 29.1876C38.375 27.4272 36.9479 26.0001 35.1875 26.0001ZM34 29.1876C34 28.5318 34.5316 28.0001 35.1875 28.0001C35.8433 28.0001 36.375 28.5318 36.375 29.1876C36.375 29.8434 35.8433 30.3751 35.1875 30.3751C34.5316 30.3751 34 29.8434 34 29.1876Z" fill="#42EC9A"/>
</svg>
