<svg width="40" height="40" viewBox="0 0 40 40" fill="none" xmlns="http://www.w3.org/2000/svg">
<g clip-path="url(#clip0_29_798)">
<path fill-rule="evenodd" clip-rule="evenodd" d="M14.6666 6C11.5371 6 9 8.53705 9 11.6667C9 14.7963 11.5371 17.3333 14.6666 17.3333C17.7962 17.3333 20.3333 14.7963 20.3333 11.6667C20.3333 8.53705 17.7962 6 14.6666 6ZM7 11.6667C7 7.43248 10.4324 4 14.6666 4C18.9009 4 22.3333 7.43248 22.3333 11.6667C22.3333 15.9009 18.9009 19.3333 14.6666 19.3333C10.4324 19.3333 7 15.9009 7 11.6667Z" fill="#42EC9A"/>
<path fill-rule="evenodd" clip-rule="evenodd" d="M25.8648 4.7522C26.0018 4.21718 26.5466 3.8945 27.0816 4.03149C28.7307 4.45374 30.1924 5.41284 31.2362 6.75759C32.28 8.10234 32.8466 9.75625 32.8466 11.4586C32.8466 13.1609 32.28 14.8148 31.2362 16.1596C30.1924 17.5043 28.7307 18.4634 27.0816 18.8857C26.5466 19.0227 26.0018 18.7 25.8648 18.165C25.7278 17.6299 26.0505 17.0852 26.5855 16.9482C27.8044 16.6361 28.8848 15.9272 29.6563 14.9332C30.4278 13.9393 30.8466 12.7168 30.8466 11.4586C30.8466 10.2004 30.4278 8.97788 29.6563 7.98393C28.8848 6.98998 27.8044 6.28108 26.5855 5.96899C26.0505 5.832 25.7278 5.28723 25.8648 4.7522Z" fill="#42EC9A"/>
<path fill-rule="evenodd" clip-rule="evenodd" d="M2.24551 26.2455C3.68329 24.8077 5.63334 24 7.66666 24H21C23.0334 24 24.9834 24.8077 26.4212 26.2455C27.859 27.6833 28.6667 29.6333 28.6667 31.6667V35C28.6667 35.5523 28.219 36 27.6667 36C27.1144 36 26.6667 35.5523 26.6667 35V31.6667C26.6667 30.1638 26.0697 28.7224 25.007 27.6597C23.9443 26.597 22.5029 26 21 26H7.66666C6.16377 26 4.72243 26.597 3.65973 27.6597C2.59702 28.7224 2 30.1638 2 31.6667V35C2 35.5523 1.55228 36 1 36C0.447712 36 0 35.5523 0 35V31.6667C0 29.6333 0.807732 27.6833 2.24551 26.2455Z" fill="#42EC9A"/>
<path fill-rule="evenodd" clip-rule="evenodd" d="M33.032 24.7503C33.1701 24.2155 33.7155 23.894 34.2502 24.032C35.895 24.4567 37.3521 25.4156 38.3929 26.7581C39.4336 28.1007 39.999 29.7508 40.0002 31.4495L40.0003 34.7836C40.0003 35.3359 39.5525 35.7836 39.0003 35.7836C38.448 35.7836 38.0003 35.3359 38.0003 34.7836V31.451C37.9993 30.1955 37.5814 28.9758 36.8122 27.9835C36.0429 26.9912 34.9659 26.2824 33.7503 25.9685C33.2155 25.8304 32.8939 25.285 33.032 24.7503Z" fill="#42EC9A"/>
</g>
<defs>
<clipPath id="clip0_29_798">
<rect width="40" height="40" fill="white"/>
</clipPath>
</defs>
</svg>
