<svg width="92" height="24" viewBox="0 0 92 24" fill="none" xmlns="http://www.w3.org/2000/svg">
<path d="M51.907 23.38H56.012C56.0519 23.3826 56.0919 23.3773 56.1297 23.3642C56.1674 23.3512 56.2022 23.3307 56.232 23.304C56.2613 23.2777 56.2849 23.2456 56.3014 23.2099C56.3179 23.1741 56.327 23.1354 56.328 23.096V11.958C56.328 8.799 57.908 7.135 60.634 7.135C63.361 7.135 64.912 8.799 64.912 11.958V23.098C64.9129 23.1578 64.9324 23.2157 64.9679 23.2638C65.0035 23.3119 65.0531 23.3476 65.11 23.366C65.1479 23.3788 65.1881 23.3839 65.228 23.381H69.333C69.3728 23.3838 69.4128 23.3785 69.4506 23.3657C69.4883 23.3528 69.5232 23.3325 69.553 23.306C69.5824 23.2796 69.6061 23.2474 69.6226 23.2114C69.6391 23.1755 69.6481 23.1365 69.649 23.097V11.987C69.649 7.22 66.951 3.046 60.634 3.046C54.316 3.046 51.591 7.22 51.591 11.986V23.097C51.5917 23.1364 51.6007 23.1753 51.6172 23.2111C51.6337 23.2469 51.6575 23.2789 51.687 23.305C51.7168 23.3315 51.7516 23.3517 51.7894 23.3645C51.8272 23.3772 51.8672 23.3831 51.907 23.38ZM23.656 23.634C25.149 23.634 26.126 23.464 26.556 23.295C26.6194 23.2699 26.6745 23.2276 26.7152 23.1728C26.7558 23.118 26.7804 23.053 26.786 22.985V19.655C26.786 19.457 26.699 19.345 26.441 19.345C26.24 19.345 25.666 19.457 25.206 19.457C23.426 19.457 22.652 18.809 22.652 17.286V7.896H26.442C26.5248 7.89567 26.6043 7.86343 26.664 7.806C26.6933 7.7773 26.7166 7.74308 26.7325 7.70532C26.7485 7.66755 26.7568 7.627 26.757 7.586V3.948C26.7561 3.86588 26.7227 3.78748 26.664 3.73C26.6044 3.6716 26.5244 3.63861 26.441 3.638H22.508V0.48C22.508 0.141 22.364 0 22.106 0H18.23C17.915 0 17.771 0.142 17.771 0.48V17.767C17.771 21.97 20.153 23.634 23.656 23.634ZM7.178 23.859C11.801 23.859 15.103 21.067 15.103 17.429C15.103 13.339 12.346 12.156 8.586 11.366L6.719 10.971C5.313 10.661 4.537 10.011 4.537 8.912C4.537 7.502 5.973 6.741 7.954 6.741C10.739 6.741 12.634 7.981 12.92 7.981C12.9993 7.97563 13.0757 7.94927 13.1414 7.90464C13.2071 7.86 13.2598 7.7987 13.294 7.727L14.04 4.992C14.185 4.625 14.155 4.541 13.896 4.4C12.231 3.554 10.451 3.074 7.924 3.074C3.244 3.074 0 5.725 0 9.251C0 12.581 2.613 14.411 6.347 15.202L8.242 15.597C9.763 15.907 10.622 16.499 10.622 17.768C10.622 19.065 9.588 20.193 7.147 20.193C3.702 20.193 1.348 18.84 0.975 18.84C0.745 18.84 0.659 18.953 0.573 19.319L0.085 21.604C-0.059 22.083 0.085 22.394 0.401 22.534C1.579 23.182 4.794 23.859 7.178 23.859ZM38.5 19.939C35.485 19.939 32.73 17.711 32.73 13.509C32.73 9.307 35.486 7.132 38.5 7.132C41.543 7.132 44.242 9.304 44.242 13.509C44.242 17.739 41.542 19.939 38.5 19.939ZM38.5 24C44.529 24 48.92 19.573 48.92 13.509C48.92 7.445 44.529 3.046 38.5 3.046C32.5 3.046 28.078 7.446 28.078 13.509C28.078 19.572 32.499 24 38.5 24ZM92 13.283C92 7.049 88.353 3.046 82.552 3.046C77.097 3.046 72.389 7.164 72.389 13.424C72.389 20.108 77.212 24 82.379 24C86.715 24 89.216 22.322 90.763 20.278C91.063 19.882 91.123 19.711 91.123 19.6C91.123 19.49 91.052 19.403 90.791 19.175L88.982 17.625C88.55 17.258 88.405 17.145 88.262 17.145C88.117 17.145 88.031 17.23 87.916 17.371C86.682 19.007 84.959 19.937 82.634 19.937C79.701 19.937 77.746 17.979 77.25 14.804H90.498C91.422 14.806 92 14.52 92 13.284V13.283ZM82.382 6.966C85.515 6.966 87.172 9.042 87.262 11.337H77.32C77.865 8.873 79.567 6.966 82.382 6.966Z" fill="#00A868"/>
</svg>
